<?xml version="1.0" standalone="no"?>
<!DOCTYPE svg PUBLIC "-//W3C//DTD SVG 20010904//EN"
 "http://www.w3.org/TR/2001/REC-SVG-20010904/DTD/svg10.dtd">
<svg version="1.0" xmlns="http://www.w3.org/2000/svg"
 width="512.000000pt" height="512.000000pt" viewBox="0 0 512.000000 512.000000"
 preserveAspectRatio="xMidYMid meet">
<metadata>
Created by potrace 1.14, written by Peter Selinger 2001-2017
</metadata>
<g transform="translate(0.000000,512.000000) scale(0.100000,-0.100000)"
fill="#000000" stroke="none">
<path d="M2455 5114 c-430 -43 -701 -119 -1036 -290 -486 -249 -863 -621
-1108 -1094 -151 -292 -228 -547 -267 -887 -22 -185 -14 -541 15 -728 84 -536
301 -987 650 -1348 396 -410 909 -656 1546 -743 181 -25 622 -25 825 -1 369
45 760 153 842 232 85 83 90 234 13 391 -50 103 -156 194 -226 194 -14 0 -81
-20 -149 -44 -145 -51 -304 -88 -480 -113 -155 -21 -548 -24 -690 -4 -681 93
-1165 429 -1427 990 -119 256 -173 524 -173 863 0 267 33 471 113 703 203 586
653 999 1252 1149 368 91 872 69 1237 -55 380 -129 664 -373 839 -720 113
-226 160 -445 160 -759 1 -311 -56 -567 -168 -760 -49 -83 -159 -199 -220
-232 -148 -80 -317 -74 -364 14 -37 69 -29 251 21 488 16 74 81 378 144 674
64 297 116 558 116 579 0 22 -5 58 -12 81 -16 55 -99 138 -154 154 -55 16
-298 15 -345 -2 -81 -29 -148 -110 -164 -199 -4 -20 -10 -39 -14 -41 -4 -3
-18 18 -31 47 -54 113 -196 213 -368 258 -112 30 -347 37 -465 15 -241 -46
-457 -161 -655 -350 -315 -301 -486 -699 -499 -1161 -6 -191 10 -332 53 -483
30 -106 117 -287 173 -362 143 -191 331 -316 571 -382 75 -20 107 -23 270 -23
148 0 198 4 250 19 163 45 340 138 460 240 36 31 67 56 70 56 3 0 14 -16 25
-36 37 -68 146 -168 226 -207 113 -56 175 -69 346 -74 183 -6 303 10 459 63
121 40 201 78 289 137 378 253 618 703 675 1263 16 151 8 499 -14 639 -54 346
-168 628 -366 907 -78 110 -253 295 -364 385 -350 281 -827 477 -1316 539
-112 14 -485 26 -565 18z m301 -1819 c140 -43 226 -169 262 -384 13 -80 14
-113 4 -225 -28 -302 -124 -537 -287 -702 -95 -96 -186 -145 -305 -164 -276
-46 -437 98 -480 430 -34 259 55 592 212 801 95 127 210 214 319 243 72 19
213 20 275 1z"/>
</g>
</svg>
